<svg xmlns="http://www.w3.org/2000/svg" width="41.291" height="24.733" viewBox="0 0 41.291 24.733">
  <path id="Icon_payment-maestro-alt" data-name="Icon payment-maestro-alt" d="M40.524,27.775q-1.3,0-1.294,1.764,0,1.177.824,1.176c.627,0,1.059-.43,1.294-1.294v-.588C41.348,28.128,41.072,27.775,40.524,27.775Zm-15.292.588a.624.624,0,0,0-.706-.706,1.05,1.05,0,0,0-1.059.941h1.764v-.235Zm-7.176,2c0,.314.195.47.588.47.706,0,1.059-.43,1.059-1.294H19.35c-.864,0-1.294.276-1.294.824Zm26.719-7.881a14.2,14.2,0,0,0-4.5-4.5,13.129,13.129,0,0,0-6.234-1.635A11.8,11.8,0,0,0,26.583,18.9a12.426,12.426,0,0,1,3.884,6.439H29.342a11.772,11.772,0,0,0-3.577-5.826,11.759,11.759,0,0,0-3.577,5.826H21.064A12.419,12.419,0,0,1,24.948,18.9a11.8,11.8,0,0,0-7.461-2.555,13.122,13.122,0,0,0-6.234,1.635,14.182,14.182,0,0,0-4.5,4.5,12.7,12.7,0,0,0,0,12.468,14.167,14.167,0,0,0,4.5,4.5,13.106,13.106,0,0,0,6.234,1.635,11.8,11.8,0,0,0,7.461-2.555A12.881,12.881,0,0,1,21.166,32.6H22.29a12.438,12.438,0,0,0,3.475,5.315A12.456,12.456,0,0,0,29.24,32.6h1.124a12.912,12.912,0,0,1-3.782,5.928,11.786,11.786,0,0,0,7.461,2.555,13.11,13.11,0,0,0,6.234-1.635,14.187,14.187,0,0,0,4.5-4.5,12.7,12.7,0,0,0,0-12.468Zm-30.6,9.41.941-4.941L12.88,31.892H11.468l-.235-4.941-.941,4.941H8.88l1.176-6.47h2.47l.118,4,1.764-4H17L15.7,31.892H14.174Zm7.176-2.824L21,30.951V31.3l-.118.235v.353H19.585V31.3a1.834,1.834,0,0,1-1.647.706q-1.411,0-1.412-1.529,0-2,2.706-2a1.667,1.667,0,0,1,.706.118v-.353c0-.312-.314-.47-.941-.47a4.04,4.04,0,0,0-1.294.118h-.235l-.118.118.118-1.176a6.933,6.933,0,0,1,1.882-.353q2.118,0,2.118,1.529a5.588,5.588,0,0,1-.118,1.058Zm3.294,1.765a3.643,3.643,0,0,0,1.647-.353l-.235,1.294a6.549,6.549,0,0,1-1.529.235q-2.708,0-2.706-2.353,0-3.176,2.706-3.176,2.118,0,2.118,1.882a5.642,5.642,0,0,1-.118,1.294H23.349v.235c0,.628.43.94,1.294.94Zm6.117-3.059H29.584q-.706,0-.706.353t.706.588a1.585,1.585,0,0,1,1.059,1.529q0,1.764-2.47,1.764H27.82a1.067,1.067,0,0,0-.47-.118h-.471l-.235-.118h-.118l.235-1.176a11.358,11.358,0,0,0,1.412.235q.94,0,.941-.47c0-.235-.235-.43-.706-.588q-1.3-.588-1.294-1.529,0-1.764,2.47-1.764c.077,0,.294.02.647.059A7.414,7.414,0,0,0,31,26.6l-.235,1.176Zm2.706,4a6.956,6.956,0,0,1-1.176.235,1.04,1.04,0,0,1-1.176-1.176v-.47l.118-.47v-.47l.824-4h1.529L33.349,26.6h.824l-.235,1.294h-.824l-.353,2.235a.341.341,0,0,0-.118.235c0,.235.195.353.588.353a.677.677,0,0,0,.47-.118l-.235,1.176Zm2.117.118H33.937l.941-5.293h1.529l-.235.824a1.943,1.943,0,0,1,1.412-.824h.353l.118.118-.588,1.412h-.353q-.824,0-1.529,3.764Zm7.411-2.353q-.353,2.47-3.059,2.47-2.589,0-2.588-2.47a2.958,2.958,0,0,1,.882-2.176,3.1,3.1,0,0,1,2.294-.882q2.47,0,2.47,2.353v.706Z" transform="translate(-5.12 -16.35)" fill="#fff"/>
</svg>
