<svg xmlns="http://www.w3.org/2000/svg" width="41.291" height="24.733" viewBox="0 0 41.291 24.733">
  <path id="Icon_payment-mastercard-alt" data-name="Icon payment-mastercard-alt" d="M46.411,28.716a12.364,12.364,0,0,0-1.635-6.234,14.2,14.2,0,0,0-4.5-4.5,13.129,13.129,0,0,0-6.234-1.635A11.8,11.8,0,0,0,26.583,18.9a12.428,12.428,0,0,1,3.884,6.439H29.342a11.772,11.772,0,0,0-3.577-5.826,11.759,11.759,0,0,0-3.577,5.826H21.064A12.419,12.419,0,0,1,24.948,18.9a11.8,11.8,0,0,0-7.461-2.555,13.122,13.122,0,0,0-6.234,1.635,14.181,14.181,0,0,0-4.5,4.5,12.7,12.7,0,0,0,0,12.468,14.167,14.167,0,0,0,4.5,4.5,13.106,13.106,0,0,0,6.234,1.635,11.8,11.8,0,0,0,7.461-2.555A12.881,12.881,0,0,1,21.166,32.6H22.29a12.438,12.438,0,0,0,3.475,5.315A12.456,12.456,0,0,0,29.24,32.6h1.124a12.912,12.912,0,0,1-3.782,5.928,11.786,11.786,0,0,0,7.461,2.555,13.11,13.11,0,0,0,6.234-1.635,14.187,14.187,0,0,0,4.5-4.5,12.366,12.366,0,0,0,1.635-6.234ZM10.537,25.752h1.942L11.457,31.68H10.231l.715-4.5-1.635,4.5h-.92v-4.5l-.818,4.5H6.347l1.022-5.928h1.84v3.679Zm5.723,2.453a4.847,4.847,0,0,1-.1.92c-.068.477-.138.92-.2,1.329a6.844,6.844,0,0,1-.2.92v.307H14.727V31.17a1.48,1.48,0,0,1-1.329.613,1.1,1.1,0,0,1-.818-.307,1.655,1.655,0,0,1-.307-1.022,1.6,1.6,0,0,1,.511-1.329,2.909,2.909,0,0,1,1.737-.511h.511v-.308c0-.272-.273-.409-.818-.409a5.741,5.741,0,0,0-1.329.2c.066-.272.136-.613.2-1.022a4.165,4.165,0,0,1,1.431-.307q1.738,0,1.738,1.431ZM14.83,29.534h-.307c-.682,0-1.022.24-1.022.715,0,.342.136.511.409.511a.692.692,0,0,0,.613-.307A1.249,1.249,0,0,0,14.83,29.534Zm5.008-2.657L19.633,28a3.146,3.146,0,0,0-.92-.1c-.409,0-.613.137-.613.409a.41.41,0,0,0,.1.307l.409.2a1.513,1.513,0,0,1,.92,1.329q0,1.636-1.942,1.635a6.038,6.038,0,0,1-1.329-.1c.066-.272.136-.647.2-1.124a5.538,5.538,0,0,0,1.124.2c.475,0,.715-.136.715-.409a.424.424,0,0,0-.1-.307,1.306,1.306,0,0,0-.511-.307,1.376,1.376,0,0,1-.92-1.329q0-1.633,1.84-1.635a4.762,4.762,0,0,1,1.227.1Zm1.942,0h.613l-.1,1.226h-.715a3.858,3.858,0,0,1-.1.92,3.194,3.194,0,0,1-.051.409.806.806,0,0,1-.153.409v.409a.361.361,0,0,0,.409.409.9.9,0,0,0,.409-.1l-.2,1.124a3.1,3.1,0,0,1-.92.1.9.9,0,0,1-1.022-1.022,4.793,4.793,0,0,1,.2-1.329l.511-3.271h1.226l-.1.716Zm4.6,1.635a6.447,6.447,0,0,1-.1,1.226H23.721a.987.987,0,0,0,.2.715,1.25,1.25,0,0,0,.92.307,2.708,2.708,0,0,0,1.329-.409l-.2,1.226a3.611,3.611,0,0,1-1.329.2A1.9,1.9,0,0,1,22.5,29.636a3.053,3.053,0,0,1,.613-2.044,1.851,1.851,0,0,1,1.533-.818,1.8,1.8,0,0,1,1.329.511,1.676,1.676,0,0,1,.409,1.227Zm-2.555.2h1.431V28.41l-.1-.2a.3.3,0,0,0-.1-.2.289.289,0,0,1-.2-.1h-.2q-.613,0-.818.818Zm5.724-1.84a7.615,7.615,0,0,0-.511,1.431c-.273-.067-.511.1-.715.511a20.12,20.12,0,0,0-.511,2.862H26.481l.1-.307q.407-2.86.613-4.5h1.226l-.1.715a1.306,1.306,0,0,1,.613-.613.445.445,0,0,1,.613-.1Zm4.292-.92-.2,1.226a2.547,2.547,0,0,0-1.124-.307,1.371,1.371,0,0,0-1.226.613,2.619,2.619,0,0,0-.409,1.635,1.409,1.409,0,0,0,.307,1.022.968.968,0,0,0,.818.409,2.548,2.548,0,0,0,1.124-.307l-.2,1.329a2.539,2.539,0,0,1-1.124.2,2.045,2.045,0,0,1-1.635-.715,2.5,2.5,0,0,1-.613-1.84,3.952,3.952,0,0,1,.818-2.555,2.346,2.346,0,0,1,2.044-1.022,4.922,4.922,0,0,1,1.431.307Zm3.679,2.249a3.209,3.209,0,0,1-.051.409,3.039,3.039,0,0,0-.051.511c-.068.342-.138.8-.2,1.38a7.22,7.22,0,0,1-.2,1.175H35.986v-.511a1.48,1.48,0,0,1-1.329.613,1.1,1.1,0,0,1-.818-.307,1.655,1.655,0,0,1-.307-1.022,1.6,1.6,0,0,1,.511-1.329,2.742,2.742,0,0,1,1.635-.511h.511a.42.42,0,0,0,.1-.307c0-.272-.273-.409-.818-.409a5.741,5.741,0,0,0-1.329.2,3.313,3.313,0,0,1,.2-1.022,4.165,4.165,0,0,1,1.431-.307q1.736,0,1.737,1.431Zm-1.431,1.329h-.307c-.682,0-1.022.24-1.022.715,0,.342.136.511.409.511a.692.692,0,0,0,.613-.307A1.249,1.249,0,0,0,36.088,29.534Zm4.6-2.657a2.722,2.722,0,0,0-.511,1.431c-.273-.067-.511.1-.715.511a20.6,20.6,0,0,0-.511,2.862H37.621l.1-.307q.4-2.234.613-4.5h1.226a2.3,2.3,0,0,1-.1.715,1.306,1.306,0,0,1,.613-.613.731.731,0,0,1,.613-.1Zm3.168-1.124h1.329L44.162,31.68H42.936l.1-.409a1.361,1.361,0,0,1-1.124.511,1.2,1.2,0,0,1-1.124-.511,2.437,2.437,0,0,1-.511-1.431,3.144,3.144,0,0,1,.715-2.146,1.6,1.6,0,0,1,1.431-.818,1.766,1.766,0,0,1,1.226.613l.2-1.738Zm-.511,3.168c0-.613-.24-.92-.715-.92a.862.862,0,0,0-.715.511,2.161,2.161,0,0,0-.2,1.124q0,.92.613.92a.885.885,0,0,0,.715-.409,2.03,2.03,0,0,0,.306-1.227Z" transform="translate(-5.12 -16.35)" fill="#fff"/>
</svg>
