<svg xmlns="http://www.w3.org/2000/svg" width="87.641" height="22.832" viewBox="0 0 87.641 22.832">
  <g id="Groupe_4937" data-name="Groupe 4937" transform="translate(-579.633 -1452.263)">
    <path id="Icon_payment-paypal" data-name="Icon payment-paypal" d="M36.9,24.436H34.566a.674.674,0,0,0-.557.3l-3.219,4.74-1.363-4.555a.675.675,0,0,0-.646-.48H26.488a.4.4,0,0,0-.383.534l2.569,7.541L26.258,35.92a.4.4,0,0,0,.33.638h2.331a.677.677,0,0,0,.554-.289l7.759-11.2a.4.4,0,0,0-.332-.634ZM21.3,28.954a2.588,2.588,0,0,1-2.62,2.217,1.8,1.8,0,0,1-1.922-2.257,2.6,2.6,0,0,1,2.6-2.233,1.955,1.955,0,0,1,1.547.632,2,2,0,0,1,.394,1.641Zm3.235-4.518H22.216a.4.4,0,0,0-.4.341l-.1.648-.162-.235a3.306,3.306,0,0,0-2.743-.973,5.338,5.338,0,0,0-5.181,4.669,4.38,4.38,0,0,0,.864,3.566,3.631,3.631,0,0,0,2.923,1.18A4.444,4.444,0,0,0,20.63,32.3l-.1.645a.4.4,0,0,0,.4.467h2.09a.673.673,0,0,0,.666-.568L24.937,24.9a.4.4,0,0,0-.4-.466Zm-13.929.055c-.265,1.74-1.593,1.74-2.879,1.74H7l.513-3.249a.4.4,0,0,1,.4-.341h.336c.875,0,1.7,0,2.128.5a1.619,1.619,0,0,1,.236,1.352Zm-.559-4.54H5.2a.673.673,0,0,0-.666.569L2.576,32.95a.4.4,0,0,0,.4.467H5.29a.673.673,0,0,0,.665-.568l.529-3.353a.673.673,0,0,1,.665-.569H8.682c3.193,0,5.036-1.545,5.517-4.608a3.732,3.732,0,0,0-.618-3.128,4.493,4.493,0,0,0-3.532-1.239Zm51.8.342L59.857,32.95a.4.4,0,0,0,.4.467h2a.673.673,0,0,0,.665-.569l1.962-12.429a.4.4,0,0,0-.4-.467H62.245a.4.4,0,0,0-.4.342Zm-5.971,8.661a2.588,2.588,0,0,1-2.62,2.217,1.8,1.8,0,0,1-1.922-2.257,2.6,2.6,0,0,1,2.6-2.233,1.955,1.955,0,0,1,1.547.632,2,2,0,0,1,.394,1.641Zm3.235-4.518H56.789a.4.4,0,0,0-.4.341l-.1.649-.163-.235a3.3,3.3,0,0,0-2.742-.973A5.338,5.338,0,0,0,48.2,28.887a4.38,4.38,0,0,0,.864,3.566,3.631,3.631,0,0,0,2.923,1.18A4.444,4.444,0,0,0,55.2,32.305l-.1.645a.4.4,0,0,0,.4.467h2.09a.673.673,0,0,0,.666-.568L59.509,24.9a.4.4,0,0,0-.4-.467Zm-13.929.055c-.265,1.74-1.593,1.74-2.879,1.74h-.731l.513-3.249a.4.4,0,0,1,.4-.341h.336c.875,0,1.7,0,2.128.5a1.621,1.621,0,0,1,.235,1.352Zm-.559-4.54H39.774a.673.673,0,0,0-.666.569L37.149,32.95a.4.4,0,0,0,.4.467h2.487a.471.471,0,0,0,.466-.4l.556-3.524a.673.673,0,0,1,.665-.569h1.534c3.193,0,5.036-1.545,5.517-4.608a3.732,3.732,0,0,0-.618-3.128,4.493,4.493,0,0,0-3.532-1.239Z" transform="translate(602.386 1435.175)" fill="#fff"/>
    <path id="Icon_awesome-paypal" data-name="Icon awesome-paypal" d="M5.61,15.482c-.176.967-.876,5.473-1.082,6.746-.015.091-.05.126-.151.126H.621a.612.612,0,0,1-.609-.7L2.962,2.931A1.022,1.022,0,0,1,3.969,2.08c7.668,0,8.312-.186,10.27.574,3.026,1.173,3.3,4,2.215,7.063-1.082,3.152-3.65,4.506-7.053,4.546C7.216,14.3,5.9,13.911,5.61,15.482ZM17.98,8.238c-.091-.065-.126-.091-.151.065a11.783,11.783,0,0,1-.443,1.692c-2.009,5.729-7.577,5.231-10.3,5.231a.507.507,0,0,0-.549.473C5.4,22.767,5.177,24.242,5.177,24.242a.536.536,0,0,0,.534.649h3.2a.9.9,0,0,0,.876-.75c.035-.272-.055.307.725-4.6.232-1.108.72-.992,1.475-.992,3.575,0,6.364-1.45,7.194-5.654C19.505,11.147,19.41,9.3,17.98,8.238Z" transform="translate(579.627 1450.202)" fill="#fff"/>
  </g>
</svg>
