<svg xmlns="http://www.w3.org/2000/svg" width="99.557" height="18.855" viewBox="0 0 99.557 18.855">
  <path id="Tracé_8674" data-name="Tracé 8674" d="M.194,12.922a.783.783,0,0,1,.027-1.06L3.242,8.741a.8.8,0,0,1,1.143,0l2.309,2.386a.8.8,0,0,0,1.143,0L10.079,8.81a.8.8,0,0,1,1.143,0l3.01,3.11a.783.783,0,0,1,.028,1.06L7.855,20.327a.8.8,0,0,1-1.2,0ZM17.637,18l1.2-1.846a3.818,3.818,0,0,0,2.542.953c.669,0,1.185-.338,1.185-.814,0-1.449-4.491-.933-4.491-4.029,0-1.846,1.72-3,3.555-3a5.606,5.606,0,0,1,3.135.972L23.6,12.105a3.054,3.054,0,0,0-1.778-.655c-.689,0-1.262.278-1.262.774,0,1.25,4.491.754,4.491,4.089,0,1.846-1.739,2.977-3.689,2.977A6.256,6.256,0,0,1,17.637,18Zm16.208-2.362,1.911,1.489a5.037,5.037,0,0,1-9.174-2.838,4.943,4.943,0,0,1,4.988-5.022,4.88,4.88,0,0,1,3.9,1.925L33.711,12.8a2.656,2.656,0,0,0-2.14-1.151,2.535,2.535,0,0,0-2.5,2.64,2.5,2.5,0,0,0,2.561,2.619A2.7,2.7,0,0,0,33.846,15.638Zm10.226.08V12.84a2.817,2.817,0,0,0-2.294-1.191,2.48,2.48,0,0,0-2.389,2.64,2.473,2.473,0,0,0,2.447,2.619A2.687,2.687,0,0,0,44.071,15.718Zm2.484-6.252v9.626H44.166v-.774a3.787,3.787,0,0,1-2.58.972,4.585,4.585,0,0,1-3.5-1.628A5.283,5.283,0,0,1,36.9,14.289a4.756,4.756,0,0,1,4.549-5.022,4.151,4.151,0,0,1,2.714.972V9.466ZM51.908,5V19.092H49.422V5Zm9.27,10.718V12.84a2.817,2.817,0,0,0-2.294-1.191,2.48,2.48,0,0,0-2.389,2.64,2.473,2.473,0,0,0,2.447,2.619A2.687,2.687,0,0,0,61.178,15.718Zm2.484-6.252v9.626H61.273v-.774a3.787,3.787,0,0,1-2.58.972,4.585,4.585,0,0,1-3.5-1.628,5.283,5.283,0,0,1-1.186-3.374,4.756,4.756,0,0,1,4.549-5.022,4.152,4.152,0,0,1,2.714.972V9.466Zm2.867,14.39V9.466h2.389v.774a4.153,4.153,0,0,1,2.714-.972,4.755,4.755,0,0,1,4.549,5.022,5.27,5.27,0,0,1-1.166,3.374A4.627,4.627,0,0,1,71.5,19.29a3.812,3.812,0,0,1-2.484-.873v5.439ZM69.014,12.84v2.878a2.685,2.685,0,0,0,2.236,1.19A2.473,2.473,0,0,0,73.7,14.289a2.48,2.48,0,0,0-2.389-2.64A2.815,2.815,0,0,0,69.014,12.84Zm15.863,2.878V12.84a2.814,2.814,0,0,0-2.294-1.191,2.479,2.479,0,0,0-2.389,2.64,2.472,2.472,0,0,0,2.446,2.619A2.685,2.685,0,0,0,84.878,15.718Zm2.485-6.252v9.626H84.973v-.774a3.789,3.789,0,0,1-2.58.972,4.588,4.588,0,0,1-3.5-1.628,5.283,5.283,0,0,1-1.185-3.374A4.756,4.756,0,0,1,82.26,9.267a4.152,4.152,0,0,1,2.714.972V9.466Zm5.811,14.39h-2.6l2.561-5.736L88.987,9.466h2.733l2.714,5.776,2.5-5.776h2.619Z" transform="translate(0 -5)" fill="#fff" fill-rule="evenodd"/>
</svg>
